<?xml version="1.0" encoding="UTF-8" standalone="no"?>
<svg
   xmlns:dc="http://purl.org/dc/elements/1.1/"
   xmlns:cc="http://creativecommons.org/ns#"
   xmlns:rdf="http://www.w3.org/1999/02/22-rdf-syntax-ns#"
   xmlns:svg="http://www.w3.org/2000/svg"
   xmlns="http://www.w3.org/2000/svg"
   id="svg8"
   version="1.1"
   viewBox="0 0 274.49816 167.28683"
   height="632.2652"
   width="1037.4734">
  <defs
     id="defs2">
    <filter
       id="filter2662"
       style="color-interpolation-filters:sRGB">
      <feFlood
         id="feFlood2652"
         result="flood"
         flood-color="rgb(0,0,0)"
         flood-opacity="1" />
      <feComposite
         id="feComposite2654"
         result="composite1"
         operator="in"
         in2="flood"
         in="SourceGraphic" />
      <feGaussianBlur
         id="feGaussianBlur2656"
         result="blur"
         stdDeviation="1.6"
         in="composite1" />
      <feOffset
         id="feOffset2658"
         result="offset"
         dy="-4.16334e-16"
         dx="-1.94289e-16" />
      <feComposite
         id="feComposite2660"
         result="composite2"
         operator="over"
         in2="offset"
         in="SourceGraphic" />
    </filter>
    <filter
       id="filter3178"
       style="color-interpolation-filters:sRGB">
      <feFlood
         id="feFlood3168"
         result="flood"
         flood-color="rgb(0,0,0)"
         flood-opacity="1" />
      <feComposite
         id="feComposite3170"
         result="composite1"
         operator="in"
         in2="flood"
         in="SourceGraphic" />
      <feGaussianBlur
         id="feGaussianBlur3172"
         result="blur"
         stdDeviation="0.8"
         in="composite1" />
      <feOffset
         id="feOffset3174"
         result="offset"
         dy="-4.16334e-16"
         dx="-1.94289e-16" />
      <feComposite
         id="feComposite3176"
         result="composite2"
         operator="over"
         in2="offset"
         in="SourceGraphic" />
    </filter>
    <filter
       id="filter3190"
       style="color-interpolation-filters:sRGB">
      <feFlood
         id="feFlood3180"
         result="flood"
         flood-color="rgb(0,0,0)"
         flood-opacity="1" />
      <feComposite
         id="feComposite3182"
         result="composite1"
         operator="in"
         in2="flood"
         in="SourceGraphic" />
      <feGaussianBlur
         id="feGaussianBlur3184"
         result="blur"
         stdDeviation="0.8"
         in="composite1" />
      <feOffset
         id="feOffset3186"
         result="offset"
         dy="-4.16334e-16"
         dx="-1.94289e-16" />
      <feComposite
         id="feComposite3188"
         result="composite2"
         operator="over"
         in2="offset"
         in="SourceGraphic" />
    </filter>
    <filter
       id="filter3202"
       style="color-interpolation-filters:sRGB">
      <feFlood
         id="feFlood3192"
         result="flood"
         flood-color="rgb(0,0,0)"
         flood-opacity="1" />
      <feComposite
         id="feComposite3194"
         result="composite1"
         operator="in"
         in2="flood"
         in="SourceGraphic" />
      <feGaussianBlur
         id="feGaussianBlur3196"
         result="blur"
         stdDeviation="0.8"
         in="composite1" />
      <feOffset
         id="feOffset3198"
         result="offset"
         dy="-4.16334e-16"
         dx="-1.94289e-16" />
      <feComposite
         id="feComposite3200"
         result="composite2"
         operator="over"
         in2="offset"
         in="SourceGraphic" />
    </filter>
    <filter
       id="filter3214"
       style="color-interpolation-filters:sRGB">
      <feFlood
         id="feFlood3204"
         result="flood"
         flood-color="rgb(0,0,0)"
         flood-opacity="1" />
      <feComposite
         id="feComposite3206"
         result="composite1"
         operator="in"
         in2="flood"
         in="SourceGraphic" />
      <feGaussianBlur
         id="feGaussianBlur3208"
         result="blur"
         stdDeviation="0.8"
         in="composite1" />
      <feOffset
         id="feOffset3210"
         result="offset"
         dy="-4.16334e-16"
         dx="-1.94289e-16" />
      <feComposite
         id="feComposite3212"
         result="composite2"
         operator="over"
         in2="offset"
         in="SourceGraphic" />
    </filter>
    <filter
       id="filter3226"
       style="color-interpolation-filters:sRGB">
      <feFlood
         id="feFlood3216"
         result="flood"
         flood-color="rgb(0,0,0)"
         flood-opacity="1" />
      <feComposite
         id="feComposite3218"
         result="composite1"
         operator="in"
         in2="flood"
         in="SourceGraphic" />
      <feGaussianBlur
         id="feGaussianBlur3220"
         result="blur"
         stdDeviation="0.8"
         in="composite1" />
      <feOffset
         id="feOffset3222"
         result="offset"
         dy="-4.16334e-16"
         dx="-1.94289e-16" />
      <feComposite
         id="feComposite3224"
         result="composite2"
         operator="over"
         in2="offset"
         in="SourceGraphic" />
    </filter>
    <filter
       id="filter3238"
       style="color-interpolation-filters:sRGB">
      <feFlood
         id="feFlood3228"
         result="flood"
         flood-color="rgb(0,0,0)"
         flood-opacity="1" />
      <feComposite
         id="feComposite3230"
         result="composite1"
         operator="in"
         in2="flood"
         in="SourceGraphic" />
      <feGaussianBlur
         id="feGaussianBlur3232"
         result="blur"
         stdDeviation="0.8"
         in="composite1" />
      <feOffset
         id="feOffset3234"
         result="offset"
         dy="-4.16334e-16"
         dx="-1.94289e-16" />
      <feComposite
         id="feComposite3236"
         result="composite2"
         operator="over"
         in2="offset"
         in="SourceGraphic" />
    </filter>
    <filter
       id="filter3334"
       style="color-interpolation-filters:sRGB">
      <feFlood
         id="feFlood3324"
         result="flood"
         flood-color="rgb(0,0,0)"
         flood-opacity="1" />
      <feComposite
         id="feComposite3326"
         result="composite1"
         operator="in"
         in2="flood"
         in="SourceGraphic" />
      <feGaussianBlur
         id="feGaussianBlur3328"
         result="blur"
         stdDeviation="6.7"
         in="composite1" />
      <feOffset
         id="feOffset3330"
         result="offset"
         dy="-4.16334e-16"
         dx="-1.94289e-16" />
      <feComposite
         id="feComposite3332"
         result="composite2"
         operator="over"
         in2="offset"
         in="SourceGraphic" />
    </filter>
    <filter
       id="filter3622"
       style="color-interpolation-filters:sRGB">
      <feFlood
         id="feFlood3612"
         result="flood"
         flood-color="rgb(0,0,0)"
         flood-opacity="0.529412" />
      <feComposite
         id="feComposite3614"
         result="composite1"
         operator="in"
         in2="SourceGraphic"
         in="flood" />
      <feGaussianBlur
         id="feGaussianBlur3616"
         result="blur"
         stdDeviation="2.8"
         in="composite1" />
      <feOffset
         id="feOffset3618"
         result="offset"
         dy="-4.16334e-16"
         dx="-1.94289e-16" />
      <feComposite
         id="feComposite3620"
         result="composite2"
         operator="over"
         in2="offset"
         in="SourceGraphic" />
    </filter>
  </defs>
  <metadata
     id="metadata5">
    <rdf:RDF>
      <cc:Work
         rdf:about="">
        <dc:format>image/svg+xml</dc:format>
        <dc:type
           rdf:resource="http://purl.org/dc/dcmitype/StillImage" />
        <dc:title></dc:title>
      </cc:Work>
    </rdf:RDF>
  </metadata>
  <g
     transform="translate(-603.46643,-279.19736)"
     id="layer1">
    <path
       id="path1119"
       d="m 614.38274,298.60413 c -1.8514,1.06929 -2.82139,3.46297 -2.23563,5.51919 l 7.30896,25.64335 a 5.4811212,5.4811212 0 0 1 -5.1769,6.98169 c -0.81483,0.014 -1.6249,0.23794 -2.33172,0.64283 l -47.70395,27.5419 c -3.51755,2.03087 -6.51712,5.09265 -8.88367,8.81369 a 5.4811212,5.4811212 0 0 1 -0.0423,0.0658 c -2.20591,3.36006 -3.97834,7.06839 -5.30806,11.07353 -1.33974,4.03525 -2.12668,8.1991 -2.36065,12.42471 a 5.4811212,5.4811212 0 0 1 -0.008,0.10299 c -0.30842,4.15088 0.0111,7.99587 1.1205,11.52053 l -0.002,10e-4 15.30701,53.92884 c 0.92199,3.57564 2.67946,6.99537 5.07089,9.99845 0.058,0.0725 0.11743,0.14324 0.17957,0.21214 a 5.4811212,5.4811212 0 0 1 0.005,0.006 c 2.43867,2.71905 5.319,4.98838 8.49119,6.67471 3.1829,1.69198 6.67269,2.77818 10.23178,3.16839 0.11863,0.013 0.23875,0.0194 0.35799,0.0239 3.86118,0.13521 7.91885,-0.93132 11.33324,-2.90246 l 101.05506,-58.34429 c 1.65496,-0.95817 2.63464,-2.96518 2.37067,-4.85921 a 5.4811212,5.4811212 0 0 1 8.79739,-5.07918 c 1.50804,1.17539 3.73661,1.33064 5.39352,0.37653 l 127.49416,-73.60877 3.92483,-2.26601 37.92197,-21.89425 c 1.85337,-1.07004 2.82284,-3.46863 2.23421,-5.52614 l -39.72395,-138.86738 -10e-4,-0.002 c -0.80794,-2.8159 -4.5384,-4.3243 -7.07568,-2.85956 l -41.84684,24.16028 c -1.85337,1.07003 -2.82284,3.46862 -2.23421,5.52613 l 8.93033,31.21437 a 5.4811212,5.4811212 0 0 1 -8.85657,5.64936 c -1.50746,-1.30513 -3.85332,-1.53045 -5.58202,-0.53699 L 676.8571,299.91652 a 5.4811212,5.4811212 0 0 1 -8.00973,-3.23952 l -5.54223,-19.37177 -0.001,-0.002 c -0.80794,-2.8159 -4.5384,-4.3243 -7.07568,-2.85956 z m 195.09568,-36.40491 a 5.4811212,5.4811212 0 0 1 8.17449,3.13921 l 10.36962,36.24573 a 5.4811212,5.4811212 0 0 1 -2.52913,6.25313 l -38.8736,22.44368 a 5.4811212,5.4811212 0 0 1 -7.66664,-7.14814 l 27.97636,-57.36974 0.004,-0.0119 c 0.0898,-0.19012 0.16838,-0.38732 0.23295,-0.58766 a 5.4811212,5.4811212 0 0 1 2.31074,-2.96279 z m -204.86721,121.29676 19.81063,-11.43766 a 5.4811212,5.4811212 0 0 1 8.01002,3.2445 l 9.59519,33.67104 a 5.4811212,5.4811212 0 0 1 -2.52945,6.24816 l -19.84362,11.45671 a 5.4811212,5.4811212 0 0 1 -8.01342,-3.25034 l -9.56214,-33.6901 a 5.4811212,5.4811212 0 0 1 2.53279,-6.24231 z m 80.15136,-46.27539 37.6831,-21.75636 a 5.4811212,5.4811212 0 0 1 7.68624,7.10578 l -27.16368,56.9161 c -0.0381,0.0842 -0.0749,0.17024 -0.10808,0.25673 A 5.4811212,5.4811212 0 0 1 692.4763,379.28008 L 682.23353,343.4738 a 5.4811212,5.4811212 0 0 1 2.52913,-6.25313 z"
       style="font-style:normal;font-variant:normal;font-weight:normal;font-stretch:normal;font-size:55.6756px;line-height:1.25;font-family:'Grand National Italic';-inkscape-font-specification:'Grand National Italic, ';letter-spacing:0px;word-spacing:0px;fill:#eb1c22;fill-opacity:1;stroke:none;stroke-width:6.04002;filter:url(#filter3334)"
       transform="matrix(0.53714309,0.3101197,-0.3101197,0.53714309,464.46067,-61.832247)" />
    <path
       id="path1108"
       d="m 616.80348,302.79696 32.08673,112.59266 -38.28899,22.10619 -15.37484,-54.17193 26.78054,-15.46175 -7.63834,-26.27663 -47.70395,27.54191 c -2.78978,1.61065 -5.20787,4.02932 -7.25126,7.25487 -1.98443,3.00559 -3.58782,6.34856 -4.81006,10.02995 -1.22227,3.6814 -1.93253,7.44024 -2.1352,11.2769 -0.28321,3.69722 0.0198,6.96214 0.91143,9.79502 l 15.37485,54.17193 c 0.75181,2.91353 2.14169,5.64468 4.17086,8.19283 2.08807,2.32815 4.47524,4.205 7.15867,5.63144 2.6834,1.42648 5.51335,2.30354 8.49154,2.62991 3.03712,0.10633 5.95092,-0.64702 8.74072,-2.25761 L 698.37541,417.50607 658.65034,278.63679 Z m 185.89867,-107.32863 39.72508,138.86928 41.84683,-24.16027 -39.72507,-138.86929 z m -118.42638,105.75625 7.63834,26.27663 56.91111,-32.85768 -41.53627,87.02957 7.63834,26.27663 110.68391,-63.90339 -7.63834,-26.27662 -58.1676,33.58307 42.79279,-87.75501 -7.63834,-26.27663 z"
       style="font-style:normal;font-variant:normal;font-weight:normal;font-stretch:normal;font-size:55.6756px;line-height:1.25;font-family:'Grand National Italic';-inkscape-font-specification:'Grand National Italic, ';letter-spacing:0px;word-spacing:0px;fill:#ffffff;fill-opacity:1;stroke:none;stroke-width:6.04002;filter:url(#filter3622)"
       transform="matrix(0.53714309,0.3101197,-0.3101197,0.53714309,464.46067,-61.832247)" />
    <path
       id="path2407"
       d="m 684.95371,417.05881 q 0.24685,-1.11086 1.04913,-2.28342 0.80229,-1.23428 1.91314,-2.22171 1.11085,-0.98742 2.34513,-1.60456 1.29599,-0.67885 2.53027,-0.67885 h 14.0708 l -1.66628,6.78854 h -7.89939 l -0.92571,3.57941 h 11.29366 l 3.5177,-13.94737 h -22.83418 l 1.66627,-6.78854 h 29.00558 q 1.23428,0 2.15999,0.67886 0.98743,0.61714 1.54285,1.60456 0.61714,0.98743 0.80229,2.22171 0.24685,1.17256 0,2.28341 l -5.18398,20.73591 h -29.80786 q -1.23428,0 -2.22171,-0.61714 -0.92571,-0.67886 -1.54285,-1.66628 -0.61714,-0.98742 -0.86399,-2.15999 -0.18514,-1.23428 0.12343,-2.34513 z"
       style="font-style:normal;font-variant:normal;font-weight:normal;font-stretch:normal;font-size:61.714px;line-height:1.25;font-family:'Grand National Italic';-inkscape-font-specification:'Grand National Italic, ';fill:#ffffff;fill-opacity:1;stroke:none;stroke-width:1.54285;filter:url(#filter3202)" />
    <path
       id="path2411"
       d="m 800.1641,399.90231 -5.18397,20.73591 q -0.30857,1.11085 -1.11085,2.34513 -0.80229,1.17257 -1.91314,2.15999 -1.04914,0.98742 -2.34513,1.66628 -1.23428,0.61714 -2.46856,0.61714 h -23.63646 q -1.23428,0 -2.22171,-0.61714 -0.92571,-0.67886 -1.54285,-1.66628 -0.61714,-0.98742 -0.86399,-2.15999 -0.18514,-1.23428 0.12343,-2.34513 l 5.18397,-20.73591 h 12.3428 l -5.18397,20.73591 h 11.29366 l 5.18397,-20.73591 z"
       style="font-style:normal;font-variant:normal;font-weight:normal;font-stretch:normal;font-size:61.714px;line-height:1.25;font-family:'Grand National Italic';-inkscape-font-specification:'Grand National Italic, ';fill:#ffffff;fill-opacity:1;stroke:none;stroke-width:1.54285;filter:url(#filter3226)" />
    <path
       id="path2403"
       d="m 645.9601,417.05881 q 0.24685,-1.11086 0,-2.28342 -0.18514,-1.23428 -0.80228,-2.22171 -0.55543,-0.98742 -1.54285,-1.60456 -0.92571,-0.67885 -2.15999,-0.67885 h -17.46507 l 0.92571,-3.57942 h 23.63647 l 1.66627,-6.78854 H 620.4105 q -1.23428,0 -2.53027,0.67886 -1.23428,0.61714 -2.34513,1.60456 -1.11086,0.98743 -1.91314,2.22171 -0.80228,1.17256 -1.04914,2.28341 l -0.92571,3.57942 q -0.30857,1.11085 -0.12342,2.34513 0.24685,1.17256 0.86399,2.15999 0.61714,0.98742 1.54285,1.66628 0.98743,0.61714 2.22171,0.61714 h 17.46506 l -0.92571,3.57941 h -23.63646 l -1.66628,6.78854 h 29.80786 q 1.23428,0 2.46856,-0.61714 1.29599,-0.67886 2.34513,-1.66628 1.11085,-0.98742 1.91314,-2.15999 0.80228,-1.23428 1.11085,-2.34513 z"
       style="font-style:normal;font-variant:normal;font-weight:normal;font-stretch:normal;font-size:61.714px;line-height:1.25;font-family:'Grand National Italic';-inkscape-font-specification:'Grand National Italic, ';fill:#ffffff;fill-opacity:1;stroke:none;stroke-width:1.54285;filter:url(#filter3178)" />
    <path
       id="path2397"
       d="m 608.84727,418.8497 h 75.67091 l 13.02855,-29.31431 24.87269,52.04973 16.4502,-36.52541 17.37141,23.51297 23.68828,-20.11418 h 59.61552"
       style="fill:none;fill-opacity:1;stroke:#eb1c22;stroke-width:2.32754;stroke-linecap:round;stroke-linejoin:round;stroke-miterlimit:4;stroke-dasharray:none;stroke-opacity:1;filter:url(#filter2662)" />
    <path
       id="path2413"
       d="m 836.76726,417.05881 q 0.24685,-1.11086 0,-2.28342 -0.18514,-1.23428 -0.80228,-2.22171 -0.55543,-0.98742 -1.54285,-1.60456 -0.92571,-0.67885 -2.15999,-0.67885 h -17.46507 l 0.92571,-3.57942 h 23.63647 l 1.66627,-6.78854 h -29.80786 q -1.23428,0 -2.53027,0.67886 -1.23428,0.61714 -2.34513,1.60456 -1.11086,0.98743 -1.91314,2.22171 -0.80228,1.17256 -1.04914,2.28341 l -0.92571,3.57942 q -0.30857,1.11085 -0.12342,2.34513 0.24685,1.17256 0.86399,2.15999 0.61714,0.98742 1.54285,1.66628 0.98743,0.61714 2.22171,0.61714 h 17.46506 l -0.92571,3.57941 h -23.63646 l -1.66628,6.78854 h 29.80786 q 1.23428,0 2.46856,-0.61714 1.29599,-0.67886 2.34513,-1.66628 1.11085,-0.98742 1.91314,-2.15999 0.80228,-1.23428 1.11085,-2.34513 z"
       style="font-style:normal;font-variant:normal;font-weight:normal;font-stretch:normal;font-size:61.714px;line-height:1.25;font-family:'Grand National Italic';-inkscape-font-specification:'Grand National Italic, ';fill:#ffffff;fill-opacity:1;stroke:none;stroke-width:1.54285;filter:url(#filter3238)" />
    <path
       id="path2409"
       d="m 752.41386,427.42676 1.66628,-6.78854 h -16.84792 l 3.51769,-13.94737 h 16.84793 l 1.66627,-6.78854 h -16.84792 l 2.09828,-8.26967 h -12.3428 l -7.28225,29.00558 q -0.30857,1.11085 -0.12343,2.34513 0.24685,1.17257 0.86399,2.15999 0.61714,0.98742 1.54285,1.66628 0.98743,0.61714 2.22171,0.61714 z"
       style="font-style:normal;font-variant:normal;font-weight:normal;font-stretch:normal;font-size:61.714px;line-height:1.25;font-family:'Grand National Italic';-inkscape-font-specification:'Grand National Italic, ';fill:#ffffff;fill-opacity:1;stroke:none;stroke-width:1.54285;filter:url(#filter3214)" />
    <path
       id="path2405"
       d="m 677.44099,427.42676 1.66628,-6.78854 h -16.84792 l 3.51769,-13.94737 h 16.84793 l 1.66627,-6.78854 h -16.84792 l 2.09828,-8.26967 h -12.3428 l -7.28225,29.00558 q -0.30857,1.11085 -0.12343,2.34513 0.24685,1.17257 0.86399,2.15999 0.61714,0.98742 1.54285,1.66628 0.98743,0.61714 2.22171,0.61714 z"
       style="font-style:normal;font-variant:normal;font-weight:normal;font-stretch:normal;font-size:61.714px;line-height:1.25;font-family:'Grand National Italic';-inkscape-font-specification:'Grand National Italic, ';fill:#ffffff;fill-opacity:1;stroke:none;stroke-width:1.54285;filter:url(#filter3190)" />
  </g>
</svg>
