<?xml version="1.0" encoding="UTF-8" standalone="no"?>
<svg
   xmlns:dc="http://purl.org/dc/elements/1.1/"
   xmlns:cc="http://creativecommons.org/ns#"
   xmlns:rdf="http://www.w3.org/1999/02/22-rdf-syntax-ns#"
   xmlns:svg="http://www.w3.org/2000/svg"
   xmlns="http://www.w3.org/2000/svg"
   xmlns:xlink="http://www.w3.org/1999/xlink"
   width="1075.9668"
   height="217.27968"
   viewBox="0 0 284.68319 57.488581"
   version="1.1"
   id="svg8">
  <defs
     id="defs2">
    <linearGradient
       id="linearGradient1392">
      <stop
         id="stop1388"
         offset="0"
         style="stop-color:#00ff00;stop-opacity:1" />
      <stop
         id="stop1390"
         offset="1"
         style="stop-color:#006200;stop-opacity:1" />
    </linearGradient>
    <linearGradient
       gradientTransform="translate(72.008005,-7.7802977)"
       gradientUnits="userSpaceOnUse"
       y2="410.13187"
       x2="4.7579112"
       y1="352.82315"
       x1="4.7579112"
       id="linearGradient1413"
       xlink:href="#linearGradient1392" />
    <linearGradient
       xlink:href="#linearGradient1392"
       id="linearGradient866"
       x1="-53.140919"
       y1="351.01227"
       x2="-53.140919"
       y2="396.31802"
       gradientUnits="userSpaceOnUse"
       gradientTransform="matrix(0.93185468,0,0,0.96820348,-8.6930449,11.881924)" />
    <filter
       style="color-interpolation-filters:sRGB"
       id="filter976">
      <feFlood
         flood-opacity="0.74902"
         flood-color="rgb(0,0,0)"
         result="flood"
         id="feFlood966" />
      <feComposite
         in="SourceGraphic"
         in2="flood"
         operator="in"
         result="composite1"
         id="feComposite968" />
      <feGaussianBlur
         in="composite1"
         stdDeviation="1"
         result="blur"
         id="feGaussianBlur970" />
      <feOffset
         dx="0"
         dy="2.77556e-17"
         result="offset"
         id="feOffset972" />
      <feComposite
         in="SourceGraphic"
         in2="offset"
         operator="over"
         result="composite2"
         id="feComposite974" />
    </filter>
    <filter
       style="color-interpolation-filters:sRGB"
       id="filter1012">
      <feFlood
         flood-opacity="0.74902"
         flood-color="rgb(0,0,0)"
         result="flood"
         id="feFlood1002" />
      <feComposite
         in="flood"
         in2="SourceGraphic"
         operator="out"
         result="composite1"
         id="feComposite1004" />
      <feGaussianBlur
         in="composite1"
         stdDeviation="1"
         result="blur"
         id="feGaussianBlur1006" />
      <feOffset
         dx="0"
         dy="2.77556e-17"
         result="offset"
         id="feOffset1008" />
      <feComposite
         in="offset"
         in2="SourceGraphic"
         operator="atop"
         result="composite2"
         id="feComposite1010" />
    </filter>
  </defs>
  <metadata
     id="metadata5">
    <rdf:RDF>
      <cc:Work
         rdf:about="">
        <dc:format>image/svg+xml</dc:format>
        <dc:type
           rdf:resource="http://purl.org/dc/dcmitype/StillImage" />
        <dc:title></dc:title>
      </cc:Work>
    </rdf:RDF>
  </metadata>
  <g
     transform="translate(93.078285,-344.92348)"
     id="layer1">
    <path
       d="m 57.801183,349.7142 c -0.868352,0 -1.606492,0.30373 -2.214335,0.91157 -0.607849,0.62521 -0.91209,1.36335 -0.91209,2.21434 v 7.26829 h -0.520899 c -0.850984,0 -1.580134,0.31271 -2.18798,0.93793 -0.625213,0.60783 -0.937926,1.33699 -0.937926,2.18798 0,0.88571 0.312713,1.63284 0.937926,2.24069 0.607846,0.59047 1.336996,0.88521 2.18798,0.88521 h 0.520899 l -0.02584,5.28857 0.390676,6.643 c 0.486275,2.62242 2.023401,4.78445 4.611087,6.48643 2.396651,1.61513 4.984112,2.42259 7.762833,2.42259 0.868354,0 1.606489,-0.30373 2.214335,-0.91157 0.607849,-0.60785 0.912091,-1.34598 0.912091,-2.21434 0,-0.86835 -0.304242,-1.61496 -0.912091,-2.24017 -0.607846,-0.59047 -1.345981,-0.88574 -2.214335,-0.88574 -1.927736,0 -3.629433,-0.69474 -5.105631,-2.08411 -0.833617,-0.74678 -1.311417,-1.87594 -1.432988,-3.38687 -0.01736,-0.2605 -0.02584,-0.55576 -0.02584,-0.88573 0,-0.31261 0.0085,-0.66871 0.02584,-1.06816 0.01737,-1.05938 0.02636,-1.68429 0.02636,-1.87533 v -5.28857 h 4.297929 c 0.850987,0 1.580658,-0.29474 2.188498,-0.88521 0.625213,-0.60785 0.937927,-1.35498 0.937927,-2.24069 0,-0.85099 -0.312714,-1.58015 -0.937927,-2.18798 -0.60784,-0.62522 -1.337511,-0.93793 -2.188498,-0.93793 h -4.297929 l 0.02584,-7.26829 c 0,-0.85099 -0.312713,-1.58014 -0.937927,-2.18798 -0.590478,-0.62522 -1.31963,-0.93793 -2.187979,-0.93793 z m 18.964733,0 c -0.850979,0 -1.589122,0.30373 -2.214335,0.91157 -0.607846,0.62521 -0.911572,1.36335 -0.911572,2.21434 0,0.85098 0.303726,1.58912 0.911572,2.21433 0.625213,0.60785 1.363356,0.91209 2.214335,0.91209 0.850987,0 1.589122,-0.30424 2.214335,-0.91209 0.607846,-0.62521 0.911571,-1.36335 0.911571,-2.21433 0,-0.85099 -0.303725,-1.58913 -0.911571,-2.21434 -0.625213,-0.60784 -1.363348,-0.91157 -2.214335,-0.91157 z m 0,10.36784 c -0.850979,0 -1.58065,0.31272 -2.188496,0.93793 -0.607848,0.60784 -0.911574,1.33751 -0.911574,2.1885 v 20.86642 c 0,0.85099 0.303726,1.58013 0.911574,2.18798 0.607846,0.62522 1.337517,0.93793 2.188496,0.93793 0.868355,0 1.606489,-0.31271 2.214335,-0.93793 0.607846,-0.60785 0.911571,-1.33699 0.911571,-2.18798 v -20.86642 c 0,-0.85099 -0.303725,-1.58066 -0.911571,-2.1885 -0.607846,-0.62521 -1.34598,-0.93793 -2.214335,-0.93793 z m -83.7266707,0.0264 c -0.86835,0 -1.60649,0.31271 -2.214338,0.93793 -0.60784,0.60783 -0.9115703,1.33699 -0.9115703,2.18798 v 10.42055 c 0,1.14622 0.1127103,2.14469 0.3384803,2.99568 0.937818,3.6297 2.848508,6.39072 5.731438,8.28373 2.24034,1.4762 4.73254996,2.21434 7.476541,2.21434 2.7092571,0 5.1750201,-0.72916 7.3979987,-2.18798 0.434176,1.49356 1.433166,2.24017 2.9962,2.24017 0.850982,0 1.580134,-0.30373 2.18798,-0.91157 0.625213,-0.60785 0.937926,-1.34598 0.937926,-2.21434 v -20.84058 c 0,-0.85099 -0.312713,-1.58015 -0.937926,-2.18798 -0.607846,-0.62522 -1.336998,-0.93793 -2.18798,-0.93793 -0.868352,0 -1.606489,0.31271 -2.214335,0.93793 -0.607846,0.60783 -0.91209,1.33699 -0.91209,2.18798 v 10.42055 c -0.03473,1.16358 -0.26914,2.21392 -0.703316,3.15174 -0.8162496,1.7367 -2.1448996,2.94365 -3.9858046,3.62097 -0.885716,0.34734 -1.7799521,0.52141 -2.6830391,0.52141 -0.920451,0 -1.823675,-0.18254 -2.70939504,-0.54725 -1.33726,-0.55575 -2.42251996,-1.45897 -3.25612996,-2.70939 -0.81625,-1.23306 -1.22422,-2.57866 -1.22422,-4.03748 v -10.42055 c 0,-0.85099 -0.31271,-1.58015 -0.93792,-2.18798 -0.60785,-0.62522 -1.33752,-0.93793 -2.1885,-0.93793 z m 95.1890217,0 c -0.868355,0 -1.606489,0.31271 -2.214335,0.93793 -0.607849,0.60783 -0.912091,1.33699 -0.912091,2.18798 v 20.84058 c 0,0.86836 0.304242,1.60649 0.912091,2.21434 0.607846,0.60784 1.34598,0.91157 2.214335,0.91157 0.850979,0 1.58013,-0.30373 2.187978,-0.91157 0.607846,-0.60785 0.911572,-1.34598 0.911572,-2.21434 V 373.6549 c 0.104201,-2.18825 0.564541,-3.82961 1.380794,-4.92373 0.833612,-1.09412 1.910395,-1.83227 3.230291,-2.21434 0.48628,-0.1042 0.97255,-0.15658 1.45883,-0.15658 0.93782,0 1.85851,0.19154 2.761598,0.57361 1.8409,1.12885 2.89123,3.3692 3.15174,6.72104 v 10.42003 c 0,0.86836 0.30425,1.60649 0.91209,2.21434 0.60785,0.60784 1.337,0.91157 2.18798,0.91157 0.86836,0 1.60649,-0.30373 2.21434,-0.91157 0.60784,-0.60785 0.91209,-1.34598 0.91209,-2.21434 V 373.6549 c 0.22576,-1.5283 0.42525,-2.47492 0.59893,-2.83962 0.34733,-0.85099 0.86853,-1.62405 1.56321,-2.31872 1.02465,-1.02466 2.26652,-1.68449 3.72535,-1.97973 0.48628,-0.1042 0.97255,-0.15658 1.45883,-0.15658 0.92045,0 1.82316,0.19154 2.70888,0.57361 1.02466,0.64258 1.77178,1.56275 2.24068,2.76107 0.46889,1.18096 0.71176,2.50113 0.72916,3.95997 v 10.42003 c 0,0.86836 0.30373,1.60649 0.91157,2.21434 0.60785,0.60784 1.33751,0.91157 2.1885,0.91157 0.88572,0 1.62386,-0.30373 2.21433,-0.91157 0.60784,-0.60785 0.91158,-1.34598 0.91158,-2.21434 V 373.6549 c 0,-1.96248 -0.38204,-4.00333 -1.14619,-6.12211 -0.92045,-2.63979 -2.80469,-4.76742 -5.65288,-6.38256 -1.64987,-0.65994 -3.31716,-0.9896 -5.00176,-0.9896 -1.14623,0 -2.30979,0.13864 -3.49075,0.41651 -2.86556,0.76415 -5.23607,2.25789 -7.11171,4.48086 -2.03194,-2.48348 -4.14211,-4.03806 -6.33036,-4.66328 -0.955198,-0.19103 -1.892818,-0.28628 -2.813278,-0.28628 -1.71933,0 -3.734255,0.7556 -6.04407,2.26653 -0.434179,-1.51093 -1.423668,-2.26653 -2.969325,-2.26653 z m 57.154653,0 c -3.68181,0.0521 -6.84283,1.39821 -9.48262,4.03799 -2.63979,2.67452 -3.95945,5.84402 -3.95945,9.50847 0,2.69188 0.76407,5.18358 2.29237,7.47603 1.49356,2.29244 3.48204,3.95974 5.96552,5.00176 1.66724,0.71205 3.38691,1.06815 5.15834,1.06815 0.88572,0 1.78843,-0.0953 2.70888,-0.28629 2.70926,-0.52101 5.03638,-1.75441 6.98149,-3.69951 2.58772,-2.58769 3.89044,-5.73973 3.90777,-9.45627 v -0.10387 c 0,-3.71655 -1.27627,-6.86012 -3.82922,-9.43044 -2.57032,-2.67452 -5.75728,-4.04656 -9.56066,-4.11602 z m 20.58014,0 c -0.85099,0 -1.58065,0.31271 -2.1885,0.93793 -0.62521,0.60783 -0.93792,1.33699 -0.93792,2.18798 v 20.84058 c 0,0.86836 0.31271,1.60649 0.93792,2.21434 0.60785,0.60784 1.33751,0.91157 2.1885,0.91157 0.86835,0 1.60649,-0.30373 2.21433,-0.91157 0.60785,-0.60785 0.91157,-1.34598 0.91157,-2.21434 V 373.6549 c 0.0347,-1.18096 0.2866,-2.2408 0.75551,-3.17862 0.83362,-1.71933 2.15328,-2.9173 3.95945,-3.59461 0.88572,-0.34734 1.76301,-0.52142 2.63137,-0.52142 0.92046,0 1.84063,0.19154 2.76108,0.57361 1.3199,0.53837 2.39668,1.43261 3.2303,2.68304 0.81623,1.23306 1.22472,2.57916 1.22472,4.038 v 10.42003 c 0,0.86836 0.31219,1.60649 0.93741,2.21434 0.60784,0.60784 1.33751,0.91157 2.18849,0.91157 0.88572,0 1.62387,-0.30373 2.21434,-0.91157 0.60785,-0.60785 0.91157,-1.34598 0.91157,-2.21434 V 373.6549 c 0,-1.14623 -0.11271,-2.14522 -0.33848,-2.9962 -0.93782,-3.62971 -2.84851,-6.39073 -5.73143,-8.28373 -2.24034,-1.4762 -4.72356,-2.21434 -7.45019,-2.21434 -2.70926,0.0174 -5.18401,0.74652 -7.42436,2.18798 -0.43417,-1.49356 -1.43265,-2.24017 -2.99568,-2.24017 z m -140.673073,0.0258 c -0.868349,0 -1.606489,0.31271 -2.214334,0.93792 -0.607846,0.60785 -0.911572,1.33752 -0.911572,2.1885 v 31.23427 c 0,0.88571 0.303726,1.62385 0.911572,2.21433 0.607845,0.60785 1.345985,0.91209 2.214334,0.91209 0.850985,0 1.580134,-0.30424 2.18798,-0.91209 0.625213,-0.59048 0.93793,-1.32862 0.93793,-2.21433 v -9.45627 c 2.292445,1.45883 4.697878,2.1885 7.216095,2.1885 0.920453,0 1.849609,-0.0958 2.787427,-0.28681 3.108698,-0.62521 5.679215,-2.19674 7.711157,-4.71496 2.066676,-2.53558 3.10007,-5.3839 3.10007,-8.54469 0,-3.66445 -1.320178,-6.83395 -3.959966,-9.50847 -2.657155,-2.63975 -5.817666,-3.98586 -9.482108,-4.03799 h -0.07855 c -1.858272,0.0347 -3.646747,0.39982 -5.366081,1.0945 -0.729416,0.31261 -1.424164,0.69464 -2.084112,1.14619 -0.434176,-1.49356 -1.424178,-2.24069 -2.969845,-2.24069 z m 120.197323,6.22597 c 2.25771,0.0347 4.11602,0.94695 5.57485,2.73575 1.12886,1.372 1.69292,2.8742 1.69292,4.5067 0,0.48628 -0.0519,0.99001 -0.15606,1.51102 -0.39944,1.96248 -1.45029,3.49909 -3.15226,4.61057 -1.25042,0.81626 -2.56161,1.22473 -3.93361,1.22473 -0.48628,0 -0.99001,-0.0524 -1.51102,-0.15657 -1.66724,-0.34735 -3.06521,-1.19819 -4.19406,-2.55282 -1.07676,-1.35463 -1.61489,-2.88277 -1.61489,-4.58473 0,-1.97985 0.72068,-3.69053 2.16214,-5.13199 1.40673,-1.40673 3.11742,-2.12792 5.13199,-2.16266 z m -109.777285,0.0264 c 2.257713,0.0347 4.116022,0.94643 5.574853,2.73523 1.128855,1.37199 1.693436,2.8742 1.693436,4.5067 0,0.48628 -0.05238,0.99001 -0.15658,1.51102 -0.399441,1.96247 -1.441304,3.4996 -3.125907,4.61109 -1.250426,0.81625 -2.570085,1.22421 -3.959447,1.22421 -0.486277,0 -0.99001,-0.0524 -1.511019,-0.15658 -1.667235,-0.3126 -3.047744,-1.16345 -4.141867,-2.55281 -1.111491,-1.35463 -1.667597,-2.88277 -1.667597,-4.58473 0,-1.97984 0.720677,-3.69052 2.16214,-5.13199 1.441463,-1.44146 3.152145,-2.16214 5.131988,-2.16214 z"
       style="font-style:normal;font-variant:normal;font-weight:normal;font-stretch:normal;font-size:53.3515px;line-height:1.25;font-family:Akaju;-inkscape-font-specification:Akaju;fill:url(#linearGradient1413);fill-opacity:1;stroke:none;stroke-width:1.33379;filter:url(#filter976)"
       id="path20" />
    <rect
       style="fill:url(#linearGradient866);fill-opacity:1;stroke-width:0.627151;stroke-linecap:round;stroke-linejoin:round;filter:url(#filter976)"
       id="rect856"
       width="70.778198"
       height="43.829273"
       x="-91.250793"
       y="351.75314"
       ry="9.567996" />
    <path
       d="m -65.26452,358.00181 c -0.9125,3.1e-4 -1.77552,0.42566 -2.12109,1.20898 l -4.23633,11.39258 c -0.1046,0.28138 -0.37169,0.46928 -0.67187,0.47265 l -18.95703,0.20508 -4.5e-4,4.82422 h 20.00826 c 1.01053,0 1.69336,0.005 2.11132,-0.1543 0.41644,-0.15858 0.7444,-0.44943 1.16797,-1.43554 l 1.6875,-4.69336 c 0.23443,-0.64786 1.15519,-0.63476 1.3711,0.0195 l 5.94336,18.01172 c 0.41622,1.04259 1.27997,1.48991 2.20507,1.48047 0.926,-0.009 1.8553,-0.50488 2.31446,-1.51368 l 7.27148,-16.90429 c 0.24207,-0.56016 1.02548,-0.58937 1.3086,-0.0488 l 2.23828,4.29297 c 0.29308,0.44642 0.49579,0.6237 0.88867,0.76562 0.39565,0.14293 1.04331,0.2168 2.07031,0.2168 l 5.87305,-0.0254 c 10e-4,0 0.003,0 0.004,0 0.61995,0 1.00322,-0.2475 1.3164,-0.68359 0.31318,-0.4361 0.5009,-1.08668 0.50195,-1.74414 10e-4,-0.65747 -0.18603,-1.30707 -0.49804,-1.74219 -0.31202,-0.43512 -0.69398,-0.68164 -1.32031,-0.68164 h -4.91211 c -0.27292,-4e-5 -0.52273,-0.15324 -0.64649,-0.39649 l -4.34766,-8.59765 c -0.91347,-1.80411 -3.50618,-1.53365 -4.27539,-0.01 l -6.59765,15.83594 c -0.25794,0.61833 -1.14455,0.58646 -1.35742,-0.0488 l -6.32032,-18.86914 -0.002,-0.002 c -0.29814,-0.76595 -1.10615,-1.1761 -2.01758,-1.17578 z"
       style="opacity:1;fill:#006400;fill-opacity:1;stroke-width:0.2;stroke-linecap:round;stroke-linejoin:round;filter:url(#filter1012)"
       id="path920" />
  </g>
</svg>
